<svg width="14" height="14" viewBox="0 0 14 14" fill="none" xmlns="http://www.w3.org/2000/svg">
<path d="M6.09091 4.00495C6.50512 4.00495 6.84091 3.66916 6.84091 3.25495C6.84091 2.84074 6.50512 2.50495 6.09091 2.50495V4.00495ZM1.42603 3.69518L1.96497 4.21675L1.96499 4.21674L1.42603 3.69518ZM1.42603 12.5844L1.965 12.0629L1.96499 12.0629L1.42603 12.5844ZM11.2045 7.76404C11.2045 7.34983 10.8688 7.01404 10.4545 7.01404C10.0403 7.01404 9.70455 7.34983 9.70455 7.76404H11.2045ZM4.82468 7.99399C4.53663 8.29165 4.54442 8.76646 4.84207 9.05451C5.13973 9.34256 5.61454 9.33478 5.90259 9.03712L4.82468 7.99399ZM13.1753 1.52197C13.4634 1.22432 13.4556 0.749505 13.1579 0.461452C12.8603 0.173399 12.3855 0.181183 12.0974 0.478838L13.1753 1.52197ZM12.6364 1.75C13.0506 1.75 13.3864 1.41421 13.3864 1C13.3864 0.585786 13.0506 0.25 12.6364 0.25V1.75ZM9 0.25C8.58579 0.25 8.25 0.585786 8.25 1C8.25 1.41421 8.58579 1.75 9 1.75V0.25ZM13.3864 1.0004C13.3864 0.58619 13.0506 0.250404 12.6364 0.250404C12.2221 0.250404 11.8864 0.58619 11.8864 1.0004H13.3864ZM11.8864 4.75798C11.8864 5.17219 12.2221 5.50798 12.6364 5.50798C13.0506 5.50798 13.3864 5.17219 13.3864 4.75798H11.8864ZM6.09091 2.50495H2.45455V4.00495H6.09091V2.50495ZM2.45455 2.50495C1.86179 2.50495 1.29847 2.7485 0.887071 3.17362L1.96499 4.21674C2.09915 4.0781 2.27577 4.00495 2.45455 4.00495V2.50495ZM0.887084 3.17361C0.476484 3.59788 0.25 4.16824 0.25 4.75798H1.75C1.75 4.55047 1.83 4.35622 1.96497 4.21675L0.887084 3.17361ZM0.25 4.75798V11.5216H1.75V4.75798H0.25ZM0.25 11.5216C0.25 12.1114 0.476494 12.6817 0.887064 13.106L1.96499 12.0629C1.82999 11.9233 1.75 11.7291 1.75 11.5216H0.25ZM0.887057 13.106C1.29847 13.5311 1.86179 13.7746 2.45455 13.7746V12.2746C2.27576 12.2746 2.09915 12.2015 1.965 12.0629L0.887057 13.106ZM2.45455 13.7746H9V12.2746H2.45455V13.7746ZM9 13.7746C9.59274 13.7746 10.156 13.5311 10.5675 13.106L9.48956 12.0628C9.35537 12.2015 9.17875 12.2746 9 12.2746V13.7746ZM10.5675 13.106C10.9781 12.6817 11.2045 12.1113 11.2045 11.5216H9.70455C9.70455 11.7291 9.62455 11.9233 9.48956 12.0628L10.5675 13.106ZM11.2045 11.5216V7.76404H9.70455V11.5216H11.2045ZM5.90259 9.03712L13.1753 1.52197L12.0974 0.478838L4.82468 7.99399L5.90259 9.03712ZM12.6364 0.25H9V1.75H12.6364V0.25ZM11.8864 1.0004V4.75798H13.3864V1.0004H11.8864Z" fill="#757575"/>
</svg>
